<svg width="199" height="198" viewBox="0 0 199 198" fill="none" xmlns="http://www.w3.org/2000/svg">
<g clip-path="url(#clip0_513_202)">
<path d="M198 99.3C198 112.235 195.452 125.044 190.502 136.994C185.552 148.945 178.297 159.803 169.15 168.95L99.5 99.3H198Z" fill="#A155B9"/>
<path d="M168.95 168.95C158.224 179.676 145.166 187.78 130.794 192.629C116.422 197.479 101.123 198.944 86.0918 196.91C71.0602 194.876 56.7015 189.398 44.135 180.903C31.5685 172.408 21.1337 161.125 13.6442 147.935C6.15471 134.744 1.81279 120.002 0.956957 104.858C0.101124 89.7132 2.7545 74.5757 8.71024 60.6253C14.666 46.6749 23.7631 34.2884 35.2926 24.4315C46.822 14.5747 60.4721 7.51374 75.1788 3.79917L99.3 99.3L168.95 168.95Z" fill="#16BFD6"/>
<path d="M74.1437 4.49372C88.877 0.545949 104.326 0.0737487 119.273 3.11433C134.22 6.15491 148.256 12.6252 160.276 22.0153C172.296 31.4054 181.971 43.4586 188.539 57.2253C195.106 70.9919 198.387 86.0957 198.123 101.346L99.6374 99.6374L74.1437 4.49372Z" fill="#F765A3"/>
</g>
<defs>
<clipPath id="clip0_513_202">
<rect width="199" height="198" fill="white"/>
</clipPath>
</defs>
</svg>
